<?xml version="1.0" encoding="utf-8"?>
<!-- Generator: Adobe Illustrator 19.2.0, SVG Export Plug-In . SVG Version: 6.00 Build 0)  -->
<svg version="1.1" id="レイヤー_1" xmlns="http://www.w3.org/2000/svg" xmlns:xlink="http://www.w3.org/1999/xlink" x="0px"
	 y="0px" viewBox="0 0 710.7 252.8" style="enable-background:new 0 0 710.7 252.8;" xml:space="preserve">
<g>
	<g>
		<path d="M174.8,15.8h43.6v145.6h-43.6v-54.6H61.9H43.6v54.6H0V15.8h43.5v54.4l131.3,0.2V15.8z M87.2,0v36.1h43.5V0H87.2z"/>
		<path d="M288,98.3v26h75.3c17.5,0,29.9-2.7,37.7-8c7.6-5.3,11.4-15.2,11.2-29.8V51.2H244.9V15.1h218.7v35v37.2
			c-0.7,26.7-10.5,45.7-29.5,57.1c-19,11.3-36.6,17-52.6,17H244.9v-37.1V72.7H288V98.3z"/>
		<path d="M709,15.2v37H590.5c-17.4,0-29.9,2.7-37.6,8c-7.6,5.3-11.4,15.3-11.1,29.8v34.8H709v36.6H490.3v-35.1v-37
			c0.7-26.8,10.5-45.7,29.5-57.1s36.6-17,52.6-17H709z"/>
	</g>
</g>
<g>
	<path d="M32.5,187.6c0-1.6-0.1-2.3-0.3-3.6H44c-0.2,1-0.3,2-0.3,3.7v2.8h16c3.9,0,6.4-0.1,8.8-0.4v11.2c-2.3-0.3-4.8-0.4-8.8-0.4
		H19.4c0,26.1-2.2,38.2-9.2,50c-3-4.1-4.8-6.1-8.5-9.4c5.2-8.9,6.5-17.1,6.5-39.9c0-6-0.1-8.5-0.3-11.2c2.4,0.2,4.3,0.3,7.7,0.3
		h16.8L32.5,187.6L32.5,187.6z M58.7,250.7c-1.1-3.6-1.6-5-2.4-6.8c-12.4,2.3-18.2,3.1-33.8,5c-1.8,0.2-3.1,0.4-4.2,0.6l-2.1-11.7
		c0.8,0.1,1.2,0.1,1.6,0.1c1.1,0,2.8-0.1,4.8-0.2c5-10.9,10.4-28.9,10.9-35.5l12.4,2.8c-0.4,1.5-0.4,1.5-2.2,7.2
		c-2.4,8-5.5,16.4-9,24.5c7-0.6,11.1-1.1,17.3-2.1c-2.2-4.5-3.2-6.3-7.4-13.2l9.9-4.5c5.1,8.8,5.1,8.8,8.7,15.6
		c3.3,6.4,3.8,7.4,6,13.5L58.7,250.7z"/>
	<path d="M92.7,231.6h-6c-2.2,0-3,0-5.5,0.1c0.2-2.3,0.3-4.4,0.3-8.2v-28.2c0-2.6-0.1-4.8-0.4-7.2c2.1,0.2,3.6,0.3,6.5,0.3h9.2
		c1.1-2,1.6-3.5,2.1-5.5l12,0.6c-0.6,1.4-1.2,2.7-2.5,4.8h14.4c3.1,0,4.6-0.1,6.5-0.3c-0.3,1.9-0.4,3.8-0.4,6.4v11.3
		c0,2.6,0.1,4.6,0.4,6.5c-2.1-0.1-3.9-0.2-6.5-0.2h-31v2.1h41.4c3.2,0,4.7-0.1,6.6-0.3v8c-1.9-0.2-4.1-0.3-6.8-0.3H92v2.1h41.4
		c2.3,0,3.8-0.1,5.1-0.2c-0.1,0.8-0.2,1.6-0.3,3.1c-0.3,5.6-1.1,12.2-1.8,15.1c-0.9,3.7-2.6,6-5.3,7.2c-1.7,0.8-4.1,1.1-7.4,1.1
		c-0.4,0-0.9,0-1.6,0c-0.5-5-0.9-7-2.3-10.1c1.6,0.2,2.8,0.4,3.6,0.4c1.7,0,2.5-0.4,2.8-1.7c0.4-1.5,0.7-4.1,0.9-7.1H103v5.8h6.2
		V236c0-1.1-0.1-1.9-0.2-3.1h11c-0.2,1.1-0.3,2.8-0.3,4.5v3.6c0,3,0.1,3.9,0.3,5.9c-2.4-0.1-2.4-0.1-5.8-0.1
		c-1.2-0.1-1.2-0.1-3.7-0.1H86.6v2.3H75.9c0.3-2,0.4-3.6,0.4-6.2v-5.5c0-1.8-0.1-3.1-0.3-4.3h10.9c-0.1,0.9-0.2,1.8-0.2,3v1.2h6.1
		L92.7,231.6L92.7,231.6z M118.5,198.1v-2.4H92.1v2.4H118.5z M92.1,206.1h26.4v-2.4H92.1V206.1z"/>
	<path d="M205.1,200.2c-0.9,1.4-0.9,1.6-2,4.9c-7.5,22.2-20,36-41.1,45.4c-2.3-4.3-4.6-7.2-8.3-10.7c10.1-3.5,18.5-8.5,24.1-14.6
		c-3.9-3.3-8.5-6.3-13.2-8.8l7.5-9c6,3.3,8.9,5,13.1,8.1c2.6-3.9,4.8-8.8,6.1-13l-19.7,0.1c-3.6,6.5-9.7,13.6-16.2,19.3
		c-3.1-3.4-6-5.8-10.2-8c10.8-8.2,18.8-19.3,21.8-30.3l12.7,2.5c-0.7,1.4-1.7,3.3-3.1,6.2l16.5-0.1h1.2c-0.9-1.9-1.8-3.7-3.2-6
		l7.2-1.9c2.2,3.5,3.6,6.5,5,10.7l-2.4,0.7L205.1,200.2z M208.4,181.8c2.1,3.3,3.3,5.9,5.1,10.5l-6.9,2.1c-1.9-5-3.1-7.7-5-10.8
		L208.4,181.8z"/>
	<path d="M228.3,189c9,5.3,13.6,8.5,19.5,13.9l-8.4,11.1c-6.2-6.5-12.2-11.2-19.3-15L228.3,189z M220.8,233.2
		c7.2-0.6,14.7-2.3,21.4-5.1c9-3.7,15.4-9,20.8-17.6c3-4.5,4.9-8.5,7-13.9c3.5,4.2,5.1,5.6,10.4,9.5c-6.5,14-13.2,22.4-23.2,28.8
		c-7.7,5-14.4,7.6-27.6,10.7c-2.8,0.6-3.2,0.7-5.1,1.3L220.8,233.2z"/>
	<path d="M342.7,248.5c-6.2-7.8-12.4-14-20.4-20.2c-6.7,7.9-15.1,14.1-26.2,19.5c-2.5-5-4-7.1-8-11.2c9.2-3.6,16.6-8.2,23-14.4
		c6.6-6.3,10.9-12.7,14.3-20.9l-18.5,0.3c-6.1,0.1-8.4,0.3-11.3,0.7l-0.4-12.7c2.8,0.4,4.7,0.5,7.5,0.5c0.6,0,1.9,0,4-0.1l24.3-0.4
		c3.3-0.1,3.8-0.1,5.7-0.8l6.3,6.4c-1.1,1.1-1.5,1.8-2.6,4.2c-3.8,8.9-6.5,13.9-10.4,19.2c8.6,6.2,11.5,8.7,22.6,19.3L342.7,248.5z"
		/>
	<path d="M382.4,197.8c0.2-2.8,0.4-6.9,0.4-9.1c0-1.5,0-2.1-0.2-3.6l13.4,0.4c-0.4,1.6-0.4,1.8-0.8,8.6c-0.1,1.9-0.1,1.9-0.2,3.6
		h15.5c2.3,0,3.2-0.1,4.8-0.8l5.5,4.8c-0.8,1.4-0.9,2-1,5.3c-0.5,15.2-1.6,27.1-3,31.8c-2.1,6.6-5.5,8.9-13.4,8.9
		c-2.8,0-3.8-0.1-9.3-0.6c-0.3-5.7-0.8-8-2.4-12.5c3.6,0.9,7,1.4,9.2,1.4c3.4,0,4.3-1.1,5.2-7.3c0.7-4.8,1.4-13.7,1.4-19.8h-13.6
		c-0.6,4.7-0.6,4.7-1.1,7.1c-3.1,14.4-9.9,23.6-24.3,33.1c-3.2-5-5.3-7.5-9.2-10.8c9.5-5,14.9-10,18.5-17.2
		c1.8-3.6,2.6-6.2,3.6-12.2h-8.9c-4.8,0-6.3,0.1-9.6,0.4l-0.1-12.2c3.6,0.5,4.8,0.6,9.9,0.6L382.4,197.8L382.4,197.8z"/>
	<path d="M441.5,189c9,5.3,13.6,8.5,19.5,13.9l-8.4,11.1c-6.2-6.5-12.2-11.2-19.3-15L441.5,189z M434.1,233.2
		c7.2-0.6,14.7-2.3,21.4-5.1c9-3.7,15.4-9,20.8-17.6c3-4.5,4.9-8.5,7-13.9c3.5,4.2,5.1,5.6,10.4,9.5c-6.5,14-13.2,22.4-23.2,28.8
		c-7.7,5-14.4,7.6-27.6,10.7c-2.8,0.6-3.2,0.7-5.1,1.3L434.1,233.2z"/>
	<path d="M529.1,192.6c-0.1,0.5-0.2,0.9-0.2,1.1c-0.1,0.2-0.2,0.9-0.3,2l-0.2,1.4l-0.3,1.6c-2.8,21.7-8.2,36.5-17.6,48
		c-3.1-3.1-7.7-6.5-11.6-8.5c9.7-9.8,16.3-29.2,16.7-48.2L529.1,192.6z M549.9,190.1c0,0.1,0,0.1,0,0.2c0,2.6,1.4,10.9,2.6,15.5
		c3.6,13.7,8,23,15.6,32.1c-4.7,2.8-7.9,5.4-11.2,9c-9.5-12.4-15.6-28.9-18.3-48.8c-0.1-0.7-0.1-1.2-0.1-1.4L538,194l-0.1-0.7
		c0,0-0.1-0.4-0.3-0.9L549.9,190.1z M568.6,195.5c0,4.4-3.6,8-8,8s-8-3.6-8-8c0-4.5,3.6-8,8-8S568.6,191,568.6,195.5z M556.6,195.5
		c0,2.1,1.8,4,4,4s4.1-1.8,4.1-4s-1.8-4.1-4-4.1C558.4,191.4,556.6,193.3,556.6,195.5z"/>
	<path d="M574,228.1c4.3,0.5,5.3,0.6,11.9,0.6h36.7c7.1,0,9.3-0.1,12.6-0.6v13.3c-3.1-0.3-4.9-0.4-12.4-0.4h-37.2
		c-6.3,0-8.8,0.1-11.7,0.4v-13.3H574z M581.1,192.8c3.3,0.4,5.3,0.5,11.1,0.5h24.1c6.3,0,8.7-0.1,11.8-0.5v13
		c-4.1-0.3-5.9-0.4-11.7-0.4H592c-5.3,0-8.5,0.1-10.9,0.4L581.1,192.8L581.1,192.8z"/>
	<path d="M644.1,210.1c3.3,0.5,7.2,0.6,14.6,0.6h34c7.1,0,9.8-0.1,14.6-0.6v13.7c-3.4-0.4-6.5-0.4-14.6-0.4h-33.8
		c-8,0-10.3,0.1-14.6,0.4v-13.7H644.1z"/>
</g>
</svg>
